<?xml version="1.0" standalone="no"?>
<!DOCTYPE svg PUBLIC "-//W3C//DTD SVG 20010904//EN"
 "http://www.w3.org/TR/2001/REC-SVG-20010904/DTD/svg10.dtd">
 <svg version="1.0" xmlns="http://www.w3.org/2000/svg"
 width="22.000000pt" height="16.000000pt" viewBox="0 0 344.000000 197.000000"
 preserveAspectRatio="xMidYMid meet">
<g transform="translate(0.000000,197.000000) scale(0.100000,-0.100000)"
fill="#FFFFFF" stroke="none">
<path d="M0 985 l0 -985 200 0 200 0 2 514 3 514 213 -501 c117 -276 212 -508
212 -514 0 -10 46 -13 195 -13 l195 0 2 722 3 722 129 -674 c70 -371 133 -696
138 -722 l10 -48 193 0 c145 0 194 3 198 12 2 7 64 323 138 701 l134 688 3
-701 2 -700 215 0 215 0 0 401 0 400 46 -3 46 -3 114 -305 c63 -168 130 -347
150 -398 l36 -92 219 0 c129 0 219 4 219 9 0 5 -91 234 -203 509 l-203 499
203 464 c111 255 202 470 202 477 1 10 -45 12 -211 10 l-212 -3 -159 -397
-159 -398 -44 0 -44 0 0 400 0 400 -317 -2 -318 -3 -121 -645 c-66 -355 -124
-663 -128 -685 -7 -34 -24 40 -112 505 -57 300 -115 609 -130 688 l-27 142
-308 0 -309 0 -2 -495 -3 -495 -211 492 -211 493 -202 3 -201 2 0 -985z"/>
</g>
</svg>
